<svg xmlns="http://www.w3.org/2000/svg" viewBox="0 0 24 24" fill="var(--fg_info, #559BD1)" focusable="false" aria-hidden="true"><path d="M10.1582,5.7954 C9.3882,5.8084 8.6512,5.2124 8.6582,4.4014 C8.6522,3.5954 9.3802,2.9874 10.1582,3.0004 C10.9362,2.9864 11.6572,3.5964 11.6512,4.4014 C11.6582,5.2134 10.9262,5.8094 10.1582,5.7954 L10.1582,5.7954 Z M11.3252,14.3874 C10.1782,14.8404 9.7662,15.0084 9.0772,14.9964 C8.3772,15.0394 7.1242,14.6384 7.1502,13.4204 C7.1522,12.0484 8.1192,10.0274 8.1332,8.8964 C8.2032,8.2274 7.6472,7.8724 6.3492,8.3564 L6.5152,7.6704 C7.8422,7.1354 8.2842,7.0674 8.7622,7.0624 C9.7892,6.9944 10.6842,7.6564 10.6532,8.6374 C10.6532,10.0184 9.7182,11.9224 9.6722,13.1604 C9.5652,14.0314 10.6032,14.0784 11.4912,13.7024 L11.3252,14.3874 Z M16.0002,0.0004 L2.0002,0.0004 C0.8972,0.0004 0.0002,0.8974 0.0002,2.0004 L0.0002,16.0004 C0.0002,17.1024 0.8972,18.0004 2.0002,18.0004 L16.0002,18.0004 C17.1022,18.0004 18.0002,17.1024 18.0002,16.0004 L18.0002,2.0004 C18.0002,0.8974 17.1022,0.0004 16.0002,0.0004 L16.0002,0.0004 Z" transform="translate(3 3)"></path></svg>