<svg width="100px" height="100px" viewBox="0 0 100 100" version="1.1" xmlns="http://www.w3.org/2000/svg" xmlns:xlink="http://www.w3.org/1999/xlink" aria-hidden="true">
    <title>RichIcons/CardReader - UCR</title>
    <desc>Created with Sketch.</desc>
    <defs>
        <polygon id="path-1" points="0.38989899 0 76.4060606 0 76.4060606 91.1008081 0.38989899 91.1008081"></polygon>
        <polygon id="path-3" points="0 100 99.9454545 100 99.9454545 0 0 0"></polygon>
    </defs>
    <g id="RichIcons/CardReader---UCR" stroke="none" stroke-width="1" fill="none" fill-rule="evenodd">
        <g id="RichIcons/ColoredOval/Eggshell1" fill="#F1E1C5">
            <g id="icon">
                <path d="M100,50.0004752 C100,77.6142098 77.6151602,100 49.9995248,100 C22.3848398,100 0,77.6142098 0,50.0004752 C0,22.3848398 22.3848398,0 49.9995248,0 C77.6151602,0 100,22.3848398 100,50.0004752" id="Oval"></path>
            </g>
        </g>
        <g id="Group-45">
            <g id="Group-6" transform="translate(12.121212, 0.000000)">
                <mask id="mask-2" fill="white">
                    <use xlink:href="#path-1"></use>
                </mask>
                <g id="Clip-5"></g>
                <path d="M63.7888889,-0.000202020202 L60.610101,-0.000202020202 L16.1868687,-0.000202020202 L13.0080808,-0.000202020202 C6.03939394,-0.000202020202 0.38989899,5.64929293 0.38989899,12.6179798 L0.38989899,78.4826263 C0.38989899,80.9311111 1.0989899,83.2088889 2.30606061,85.1442424 C4.03030303,86.889697 5.87878788,88.509899 7.84242424,89.9866667 C9.42121212,90.6967677 11.1656566,91.1008081 13.0080808,91.1008081 L16.1868687,91.1008081 L60.610101,91.1008081 L63.7888889,91.1008081 C64.8484848,91.1008081 65.8717172,90.9553535 66.8545455,90.709899 C70.1121212,88.3836364 73.0757576,85.6775758 75.6858586,82.6543434 C76.1444444,81.3462626 76.4060606,79.9462626 76.4060606,78.4826263 L76.4060606,12.6179798 C76.4060606,5.64929293 70.7565657,-0.000202020202 63.7888889,-0.000202020202" id="Fill-4" fill="#D4D4DD" mask="url(#mask-2)"></path>
            </g>
            <path d="M25.0370707,90.1355556 L72.6390909,90.1355556 C79.0643434,90.1355556 84.2916162,84.9082828 84.2916162,78.4830303 L84.2916162,12.6173737 C84.2916162,6.19212121 79.0643434,0.964848485 72.6390909,0.964848485 L25.0370707,0.964848485 C18.6118182,0.964848485 13.3845455,6.19212121 13.3845455,12.6173737 L13.3845455,78.4830303 C13.3845455,84.9082828 18.6118182,90.1355556 25.0370707,90.1355556" id="Fill-7" fill="#E6E6ED"></path>
            <path d="M34.949697,48.2805051 L18.8375758,48.2805051 C18.0012121,48.2805051 17.3224242,47.6027273 17.3224242,46.7653535 L17.3224242,43.0926263 C17.3224242,42.2562626 18.0012121,41.5774747 18.8375758,41.5774747 L34.949697,41.5774747 C35.7860606,41.5774747 36.4638384,42.2562626 36.4638384,43.0926263 L36.4638384,46.7653535 C36.4638384,47.6027273 35.7860606,48.2805051 34.949697,48.2805051" id="Fill-9" fill="#2842BF"></path>
            <path d="M56.8029293,48.2878788 L40.8736364,48.2878788 C40.0372727,48.2878788 39.3584848,47.610101 39.3584848,46.7727273 L39.3584848,43.0919192 C39.3584848,42.2555556 40.0372727,41.5777778 40.8736364,41.5777778 L56.8029293,41.5777778 C57.6392929,41.5777778 58.3170707,42.2555556 58.3170707,43.0919192 L58.3170707,46.7727273 C58.3170707,47.610101 57.6392929,48.2878788 56.8029293,48.2878788" id="Fill-11" fill="#2842BF"></path>
            <path d="M78.8387879,48.2878788 L62.7276768,48.2878788 C61.8913131,48.2878788 61.2125253,47.610101 61.2125253,46.7727273 L61.2125253,43.0919192 C61.2125253,42.2555556 61.8913131,41.5777778 62.7276768,41.5777778 L78.8387879,41.5777778 C79.6751515,41.5777778 80.3539394,42.2555556 80.3539394,43.0919192 L80.3539394,46.7727273 C80.3539394,47.610101 79.6751515,48.2878788 78.8387879,48.2878788" id="Fill-13" fill="#2842BF"></path>
            <path d="M34.949697,57.7087879 L18.8375758,57.7087879 C18.0012121,57.7087879 17.3224242,57.0310101 17.3224242,56.1936364 L17.3224242,52.6976768 C17.3224242,51.8613131 18.0012121,51.1835354 18.8375758,51.1835354 L34.949697,51.1835354 C35.7860606,51.1835354 36.4638384,51.8613131 36.4638384,52.6976768 L36.4638384,56.1936364 C36.4638384,57.0310101 35.7860606,57.7087879 34.949697,57.7087879" id="Fill-15" fill="#FFFFFF"></path>
            <path d="M34.949697,67.129596 L18.8375758,67.129596 C18.0012121,67.129596 17.3224242,66.4518182 17.3224242,65.6154545 L17.3224242,62.1184848 C17.3224242,61.2821212 18.0012121,60.6043434 18.8375758,60.6043434 L34.949697,60.6043434 C35.7860606,60.6043434 36.4638384,61.2821212 36.4638384,62.1184848 L36.4638384,65.6154545 C36.4638384,66.4518182 35.7860606,67.129596 34.949697,67.129596" id="Fill-17" fill="#FFFFFF"></path>
            <path d="M34.949697,76.5510101 L18.8375758,76.5510101 C18.0012121,76.5510101 17.3224242,75.8732323 17.3224242,75.0358586 L17.3224242,71.539899 C17.3224242,70.7025253 18.0012121,70.0257576 18.8375758,70.0257576 L34.949697,70.0257576 C35.7860606,70.0257576 36.4638384,70.7025253 36.4638384,71.539899 L36.4638384,75.0358586 C36.4638384,75.8732323 35.7860606,76.5510101 34.949697,76.5510101" id="Fill-19" fill="#FFFFFF"></path>
            <path d="M56.9864646,57.7087879 L40.8743434,57.7087879 C40.0379798,57.7087879 39.3591919,57.0310101 39.3591919,56.1936364 L39.3591919,52.6976768 C39.3591919,51.8613131 40.0379798,51.1835354 40.8743434,51.1835354 L56.9864646,51.1835354 C57.8228283,51.1835354 58.5006061,51.8613131 58.5006061,52.6976768 L58.5006061,56.1936364 C58.5006061,57.0310101 57.8228283,57.7087879 56.9864646,57.7087879" id="Fill-21" fill="#FFFFFF"></path>
            <path d="M56.9864646,67.129596 L40.8743434,67.129596 C40.0379798,67.129596 39.3591919,66.4518182 39.3591919,65.6154545 L39.3591919,62.1184848 C39.3591919,61.2821212 40.0379798,60.6043434 40.8743434,60.6043434 L56.9864646,60.6043434 C57.8228283,60.6043434 58.5006061,61.2821212 58.5006061,62.1184848 L58.5006061,65.6154545 C58.5006061,66.4518182 57.8228283,67.129596 56.9864646,67.129596" id="Fill-23" fill="#FFFFFF"></path>
            <path d="M56.9864646,76.5510101 L40.8743434,76.5510101 C40.0379798,76.5510101 39.3591919,75.8732323 39.3591919,75.0358586 L39.3591919,71.539899 C39.3591919,70.7025253 40.0379798,70.0257576 40.8743434,70.0257576 L56.9864646,70.0257576 C57.8228283,70.0257576 58.5006061,70.7025253 58.5006061,71.539899 L58.5006061,75.0358586 C58.5006061,75.8732323 57.8228283,76.5510101 56.9864646,76.5510101" id="Fill-25" fill="#FFFFFF"></path>
            <path d="M56.8029293,86.1553535 L40.8736364,86.1553535 C40.0372727,86.1553535 39.3584848,85.4775758 39.3584848,84.640202 L39.3584848,80.960404 C39.3584848,80.1240404 40.0372727,79.4462626 40.8736364,79.4462626 L56.8029293,79.4462626 C57.6392929,79.4462626 58.3170707,80.1240404 58.3170707,80.960404 L58.3170707,84.640202 C58.3170707,85.4775758 57.6392929,86.1553535 56.8029293,86.1553535" id="Fill-27" fill="#FFFFFF"></path>
            <path d="M78.8387879,57.7087879 L62.7276768,57.7087879 C61.8913131,57.7087879 61.2125253,57.0310101 61.2125253,56.1936364 L61.2125253,52.6976768 C61.2125253,51.8613131 61.8913131,51.1835354 62.7276768,51.1835354 L78.8387879,51.1835354 C79.6751515,51.1835354 80.3539394,51.8613131 80.3539394,52.6976768 L80.3539394,56.1936364 C80.3539394,57.0310101 79.6751515,57.7087879 78.8387879,57.7087879" id="Fill-29" fill="#FFFFFF"></path>
            <path d="M78.8387879,67.129596 L62.7276768,67.129596 C61.8913131,67.129596 61.2125253,66.4518182 61.2125253,65.6154545 L61.2125253,62.1184848 C61.2125253,61.2821212 61.8913131,60.6043434 62.7276768,60.6043434 L78.8387879,60.6043434 C79.6751515,60.6043434 80.3539394,61.2821212 80.3539394,62.1184848 L80.3539394,65.6154545 C80.3539394,66.4518182 79.6751515,67.129596 78.8387879,67.129596" id="Fill-31" fill="#FFFFFF"></path>
            <path d="M78.8387879,76.5510101 L62.7276768,76.5510101 C61.8913131,76.5510101 61.2125253,75.8732323 61.2125253,75.0358586 L61.2125253,71.539899 C61.2125253,70.7025253 61.8913131,70.0257576 62.7276768,70.0257576 L78.8387879,70.0257576 C79.6751515,70.0257576 80.3539394,70.7025253 80.3539394,71.539899 L80.3539394,75.0358586 C80.3539394,75.8732323 79.6751515,76.5510101 78.8387879,76.5510101" id="Fill-33" fill="#FFFFFF"></path>
            <mask id="mask-4" fill="white">
                <use xlink:href="#path-3"></use>
            </mask>
            <g id="Clip-36"></g>
            <polygon id="Fill-35" fill="#77A7AA" mask="url(#mask-4)" points="25.8373737 32.9585859 71.8393939 32.9585859 71.8393939 19.0616162 25.8373737 19.0616162"></polygon>
            <polygon id="Fill-37" fill="#9AC0C1" mask="url(#mask-4)" points="35.829596 19.0620202 25.8366667 19.0620202 25.8366667 32.9589899 33.8992929 32.9589899 47.7962626 19.0620202"></polygon>
            <polygon id="Fill-38" fill="#9AC0C1" mask="url(#mask-4)" points="53.1137374 19.0620202 39.2177778 32.9589899 43.4632323 32.9589899 57.360202 19.0620202"></polygon>
            <path d="M19.5090909,5.32353535 C19.5090909,7.32353535 21.130303,8.94474747 23.130303,8.94474747 L74.4878788,8.94474747 C76.4868687,8.94474747 78.1090909,7.32353535 78.1090909,5.32353535 L78.1090909,1.27505051 C76.4444444,0.465959596 74.5838384,-0.000707070707 72.6090909,-0.000707070707 L25.0080808,-0.000707070707 C23.0343434,-0.000707070707 21.1727273,0.465959596 19.5090909,1.2740404 L19.5090909,5.32353535 Z" id="Fill-41" fill="#FE530E" mask="url(#mask-4)"></path>
            <path d="M77.6264646,1.04191919 L77.6264646,5.32373737 C77.6264646,7.0540404 76.2173737,8.46212121 74.4880808,8.46212121 L23.1305051,8.46212121 C21.400202,8.46212121 19.9911111,7.0540404 19.9911111,5.32373737 L19.9911111,1.04191919 C19.6628283,1.18535354 19.3406061,1.33787879 19.0264646,1.50656566 L19.0264646,5.32373737 C19.0264646,7.58636364 20.8678788,9.42777778 23.1305051,9.42777778 L74.4880808,9.42777778 C76.7507071,9.42777778 78.5911111,7.58636364 78.5911111,5.32373737 L78.5911111,1.50656566 C78.2789899,1.33787879 77.9547475,1.18434343 77.6264646,1.04191919" id="Fill-42" fill="#E84810" mask="url(#mask-4)"></path>
            <path d="M36.4638384,84.7081818 L36.4638384,80.8930303 C36.4638384,80.0940404 35.8153535,79.4465657 35.0163636,79.4465657 L18.7688889,79.4465657 C17.969899,79.4465657 17.3224242,80.0940404 17.3224242,80.8930303 C17.3224242,80.910202 17.3264646,80.9273737 17.3325253,80.9435354 C18.3133333,83.5849495 20.6062626,85.5920202 23.4214141,86.1556566 L35.0163636,86.1556566 C35.8153535,86.1556566 36.4638384,85.5071717 36.4638384,84.7081818" id="Fill-43" fill="#FC6B38" mask="url(#mask-4)"></path>
            <path d="M61.2123232,84.7081818 L61.2123232,80.8930303 C61.2123232,80.0940404 61.8608081,79.4465657 62.659798,79.4465657 L78.9072727,79.4465657 C79.7062626,79.4465657 80.3537374,80.0940404 80.3537374,80.8930303 C80.3537374,80.910202 80.3507071,80.9273737 80.3436364,80.9435354 C79.3628283,83.5849495 77.069899,85.5920202 74.2547475,86.1556566 L62.659798,86.1556566 C61.8608081,86.1556566 61.2123232,85.5071717 61.2123232,84.7081818" id="Fill-44" fill="#98C1F2" mask="url(#mask-4)"></path>
        </g>
    </g>
</svg>