<svg xmlns="http://www.w3.org/2000/svg" viewBox="0 0 24 24" focusable="false" aria-hidden="true">
                            <path d="M9,13 C10.103,13 11,13.897 11,15 L11,15 L11,20 C11,21.103 10.103,22 9,22 L9,22 L4,22 C2.897,22 2,21.103 2,20 L2,20 L2,15 C2,13.897 2.897,13 4,13 L4,13 Z M22,17 L22,22 L20,22 L20,19 L16,19 L16,17 L22,17 Z M15,19 L15,22 L13,22 L13,19 L15,19 Z M19,20 L19,22 L16,22 L16,20 L19,20 Z M9,15 L4,15 L4,20 L9.002,20 L9,15 Z M8,16 L8,19 L5,19 L5,16 L8,16 Z M16,14 L16,16 L15,16 L15,17 L13,17 L13,14 L16,14 Z M22,13 L22,16 L18,16 L18,14 L20,14 L20,13 L22,13 Z M9,2 C10.103,2 11,2.897 11,4 L11,4 L11,9 C11,10.103 10.103,11 9,11 L9,11 L4,11 C2.897,11 2,10.103 2,9 L2,9 L2,4 C2,2.897 2.897,2 4,2 L4,2 Z M20,2 C21.103,2 22,2.897 22,4 L22,4 L22,9 C22,10.103 21.103,11 20,11 L20,11 L15,11 C13.897,11 13,10.103 13,9 L13,9 L13,4 C13,2.897 13.897,2 15,2 L15,2 Z M9,4 L4,4 L4,9 L9.001,9 L9,4 Z M20,4 L15,4 L15,9 L20.001,9 L20,4 Z M8,5 L8,8 L5,8 L5,5 L8,5 Z M19,5 L19,8 L16,8 L16,5 L19,5 Z"></path>
                        </svg>