<svg width="100px" height="100px" viewBox="0 0 100 100" version="1.1" xmlns="http://www.w3.org/2000/svg" xmlns:xlink="http://www.w3.org/1999/xlink" aria-hidden="true">
    <title>SMS Verification</title>
    <defs>
        <linearGradient id="phoneGradient" x1="0%" y1="0%" x2="100%" y2="100%">
            <stop offset="0%" stop-color="#F1E1C5" />
            <stop offset="100%" stop-color="#E6E6ED" />
        </linearGradient>
    </defs>
    <g stroke="none" stroke-width="1" fill="none" fill-rule="evenodd">
        <circle cx="50" cy="50" r="50" fill="#F1E1C5" />
        <rect x="30" y="15" width="40" height="70" rx="5" fill="#E6E6ED" stroke="#D4D4DD" stroke-width="2" />
        <rect x="33" y="20" width="34" height="55" rx="2" fill="#FFFFFF" />
        <rect x="37" y="30" width="26" height="14" rx="7" fill="#525199" />
        <rect x="42" y="48" width="21" height="14" rx="7" fill="#FF6200" />
        <rect x="41" y="34" width="18" height="2" rx="1" fill="white" />
        <rect x="41" y="38" width="12" height="2" rx="1" fill="white" />
        <rect x="46" y="52" width="13" height="2" rx="1" fill="white" />
        <rect x="46" y="56" width="8" height="2" rx="1" fill="white" />
        <g transform="translate(48, 70)">
            <circle cx="4" cy="4" r="4" fill="#FF6200" />
            <path d="M2.5,4 L3.5,5 L5.5,3" stroke="white" stroke-width="1" stroke-linecap="round" stroke-linejoin="round" fill="none" />
        </g>
        <circle cx="50" cy="80" r="3" stroke="#D4D4DD" stroke-width="1" fill="#F1F1F1" />
    </g>
</svg> 