<svg xmlns="http://www.w3.org/2000/svg" viewBox="0 0 218.23 50"><defs><style>.cls-1{fill:#fff;}</style></defs><g id="Layer_2" data-name="Layer 2"><g id="Lager_1" data-name="Lager 1"><path id="SVGID" class="cls-1" d="M25,50A25,25,0,1,1,50,25,25,25,0,0,1,25,50ZM25,1.18A23.84,23.84,0,1,0,48.83,25,23.86,23.86,0,0,0,25,1.18Z"/><path class="cls-1" d="M34.57,29.15a18.64,18.64,0,0,0-2.15-1.75A17.55,17.55,0,0,0,30,26.1a17.27,17.27,0,0,0,2.52-1.38,13.94,13.94,0,0,0,2.17-1.8,9.16,9.16,0,0,0,1.85-2.67V31.76A9.63,9.63,0,0,0,34.57,29.15ZM19.49,11.9H9.56V22.38A14.93,14.93,0,0,1,19.49,11.9ZM41,22.38V11.9H31A15,15,0,0,1,41,22.38ZM28.68,11.9H21.49V42.3h7.19Z"/><path class="cls-1" d="M86.18,10.8v6.83h-.67a.8.8,0,0,1-.86-.63l-1.36-4.56-5.56,0c-.81,0-1-.9-.67-1.62Z"/><path class="cls-1" d="M75.3,10.76V39.44l3.52.36c.49.05.67.27.67.72v.4h-13v-.4c0-.45.18-.67.67-.72l3.52-.36V12.34l-8,.09L61.3,17a.8.8,0,0,1-.87.63h-.62V10.79L73,10.7Z"/><path class="cls-1" d="M97.48,39.43l3.25.32c.49.09.67.31.67.77v.4H88.9v-.4c0-.45.17-.67.67-.77l3.25-.32V12.25l-3.25-.32c-.5-.09-.67-.31-.67-.77v-.4h21.95v6.41h-.5a.88.88,0,0,1-.9-.63l-1.31-4.16-10.66-.13Zm9.4-14.26L108,22.46a.92.92,0,0,1,.95-.63h.23v8.4h-.27a.93.93,0,0,1-1-.62l-1.09-2.81h-6.73c-.82,0-1.09-.9-.68-1.62h7.41Z"/><path class="cls-1" d="M122.83,40.92h-8.59v-.27c0-.53.18-.67.67-.77l3.25-.45V12.25l-3.25-.36a.66.66,0,0,1-.67-.77v-.36h8.59Zm3-15a.63.63,0,0,1-.72-.68.56.56,0,0,1,.63-.62c3.8-.05,6.87-2.08,6.87-6.46s-2.26-6.23-6-6.23c-.4,0-.86,0-1.27,0s-.67-.18-.67-.63.18-.5.72-.54,1.76-.09,2.16-.09c7.32,0,10.16,2.62,10,7.9-.14,4.7-4.74,6.45-7,6.45,1.54,0,8.54,1.18,8.54,7.73,0,4-3.52,8.4-10.94,8.4a22.06,22.06,0,0,1-2.57-.09c-.54-.09-1-.27-1-.72s.23-.62.36-.62c2.22,0,9.26-.23,9.26-7.28S126.7,25.93,125.85,25.89Z"/><path class="cls-1" d="M154.39,37.54a5.53,5.53,0,0,1-4.07,2.07,3.11,3.11,0,0,1-3-3.43c0-4.24,3.75-5.24,7.32-5.51.18-.18.4-1.13-.45-1.13-5.92,0-11.34,1.94-11.34,6.64,0,3.34,3,5.29,6,5.29A7.48,7.48,0,0,0,155,38.4C155.39,37.76,154.75,37.49,154.39,37.54Z"/><path class="cls-1" d="M172.75,39.62l2.71.18c.49.05.67.27.67.72v.4H165.34v-.4c0-.45.18-.67.67-.72l2.31-.18V20.51l-3.16-.14c-.49,0-.67-.22-.72-.72V19.3l8.32-.54V39.62Zm17.12.23a.63.63,0,0,1,.67.73v.35h-10v-.4c0-.45.18-.67.67-.72l1.76-.13c.18-5.11.36-6.78.36-11.88,0-3.29-.09-7.58-4-7.58a6.52,6.52,0,0,0-4.52,2,.42.42,0,0,1-.49-.49c.09-.91,2.35-3.25,6.14-3.25,4.69,0,7.31,2.53,7.31,7,0,5.25-.13,9-.35,14.15Z"/><path class="cls-1" d="M200.08,39.62l2.12.18c.49.05.67.27.67.72v.4H192.71v-.4c0-.45.17-.67.67-.72l2.26-.18V11.46l-3.29-.13c-.5-.05-.68-.23-.72-.72v-.36l8.45-.95Zm1.53-9.53c-.44-.5-.44-.87,0-1.27l8.85-8-2.31-.68a.78.78,0,0,1-.62-.86v-.36h8.85v.36a.79.79,0,0,1-.67.86l-2.67.68-8.32,7.4,10.44,11.34,2.35.23c.49.09.67.31.67.77v.4H207.8v-.4c0-.45.18-.67.67-.72l1.85-.18Z"/><path class="cls-1" d="M162.4,40.68c0-.45-.17-.68-.67-.72l-1.16-.18,0-13.61c0-5.11-2.22-7.77-8.67-7.77-2.8,0-7.94,1.18-7.94,5.65,0,2.12,2.48,2.84,4,1.89-.81-4.07,1.54-6.41,4.21-6.41,3,0,4.11,2.44,4.11,5.92V38.53c0,2.58,1.6,2.65,3.53,2.56h2.68v-.41Z"/></g></g></svg>